<mxfile host="app.diagrams.net" agent="Mozilla/5.0 (Windows NT 10.0; Win64; x64) AppleWebKit/537.36 (KHTML, like Gecko) Chrome/133.0.0.0 Safari/537.36 Edg/133.0.0.0" version="26.1.0">
  <diagram name="第 1 页" id="o7KV6WdRoD-tVoVhlDh7">
    <mxGraphModel dx="1737" dy="2124" grid="1" gridSize="10" guides="1" tooltips="1" connect="1" arrows="1" fold="1" page="1" pageScale="1" pageWidth="827" pageHeight="1169" math="0" shadow="0">
      <root>
        <mxCell id="0" />
        <mxCell id="1" parent="0" />
        <mxCell id="Xg7zsC55FOMhdoDRZeXA-1" value="方格矩阵" style="shape=table;startSize=30;container=1;collapsible=0;childLayout=tableLayout;strokeColor=default;fontSize=16;movable=1;resizable=1;rotatable=1;deletable=1;editable=1;locked=0;connectable=1;" parent="1" vertex="1">
          <mxGeometry x="860" y="575" width="130" height="90" as="geometry" />
        </mxCell>
        <mxCell id="Xg7zsC55FOMhdoDRZeXA-2" value="" style="shape=tableRow;horizontal=0;startSize=0;swimlaneHead=0;swimlaneBody=0;strokeColor=inherit;top=0;left=0;bottom=0;right=0;collapsible=0;dropTarget=0;fillColor=none;points=[[0,0.5],[1,0.5]];portConstraint=eastwest;fontSize=16;movable=1;resizable=1;rotatable=1;deletable=1;editable=1;locked=0;connectable=1;" parent="Xg7zsC55FOMhdoDRZeXA-1" vertex="1">
          <mxGeometry y="30" width="130" height="20" as="geometry" />
        </mxCell>
        <mxCell id="Xg7zsC55FOMhdoDRZeXA-3" value="" style="shape=partialRectangle;html=1;whiteSpace=wrap;connectable=1;strokeColor=inherit;overflow=hidden;fillColor=none;top=0;left=0;bottom=0;right=0;pointerEvents=1;fontSize=16;movable=1;resizable=1;rotatable=1;deletable=1;editable=1;locked=0;" parent="Xg7zsC55FOMhdoDRZeXA-2" vertex="1">
          <mxGeometry width="43" height="20" as="geometry">
            <mxRectangle width="43" height="20" as="alternateBounds" />
          </mxGeometry>
        </mxCell>
        <mxCell id="Xg7zsC55FOMhdoDRZeXA-4" value="" style="shape=partialRectangle;html=1;whiteSpace=wrap;connectable=1;strokeColor=inherit;overflow=hidden;fillColor=none;top=0;left=0;bottom=0;right=0;pointerEvents=1;fontSize=16;movable=1;resizable=1;rotatable=1;deletable=1;editable=1;locked=0;" parent="Xg7zsC55FOMhdoDRZeXA-2" vertex="1">
          <mxGeometry x="43" width="44" height="20" as="geometry">
            <mxRectangle width="44" height="20" as="alternateBounds" />
          </mxGeometry>
        </mxCell>
        <mxCell id="Xg7zsC55FOMhdoDRZeXA-5" value="" style="shape=partialRectangle;html=1;whiteSpace=wrap;connectable=1;strokeColor=inherit;overflow=hidden;fillColor=none;top=0;left=0;bottom=0;right=0;pointerEvents=1;fontSize=16;movable=1;resizable=1;rotatable=1;deletable=1;editable=1;locked=0;" parent="Xg7zsC55FOMhdoDRZeXA-2" vertex="1">
          <mxGeometry x="87" width="43" height="20" as="geometry">
            <mxRectangle width="43" height="20" as="alternateBounds" />
          </mxGeometry>
        </mxCell>
        <mxCell id="Xg7zsC55FOMhdoDRZeXA-6" value="" style="shape=tableRow;horizontal=0;startSize=0;swimlaneHead=0;swimlaneBody=0;strokeColor=inherit;top=0;left=0;bottom=0;right=0;collapsible=0;dropTarget=0;fillColor=none;points=[[0,0.5],[1,0.5]];portConstraint=eastwest;fontSize=16;movable=1;resizable=1;rotatable=1;deletable=1;editable=1;locked=0;connectable=1;" parent="Xg7zsC55FOMhdoDRZeXA-1" vertex="1">
          <mxGeometry y="50" width="130" height="20" as="geometry" />
        </mxCell>
        <mxCell id="Xg7zsC55FOMhdoDRZeXA-7" value="" style="shape=partialRectangle;html=1;whiteSpace=wrap;connectable=1;strokeColor=inherit;overflow=hidden;fillColor=none;top=0;left=0;bottom=0;right=0;pointerEvents=1;fontSize=16;movable=1;resizable=1;rotatable=1;deletable=1;editable=1;locked=0;" parent="Xg7zsC55FOMhdoDRZeXA-6" vertex="1">
          <mxGeometry width="43" height="20" as="geometry">
            <mxRectangle width="43" height="20" as="alternateBounds" />
          </mxGeometry>
        </mxCell>
        <mxCell id="Xg7zsC55FOMhdoDRZeXA-8" value="" style="shape=partialRectangle;html=1;whiteSpace=wrap;connectable=1;strokeColor=inherit;overflow=hidden;fillColor=none;top=0;left=0;bottom=0;right=0;pointerEvents=1;fontSize=16;movable=1;resizable=1;rotatable=1;deletable=1;editable=1;locked=0;" parent="Xg7zsC55FOMhdoDRZeXA-6" vertex="1">
          <mxGeometry x="43" width="44" height="20" as="geometry">
            <mxRectangle width="44" height="20" as="alternateBounds" />
          </mxGeometry>
        </mxCell>
        <mxCell id="Xg7zsC55FOMhdoDRZeXA-9" value="" style="shape=partialRectangle;html=1;whiteSpace=wrap;connectable=1;strokeColor=inherit;overflow=hidden;fillColor=none;top=0;left=0;bottom=0;right=0;pointerEvents=1;fontSize=16;movable=1;resizable=1;rotatable=1;deletable=1;editable=1;locked=0;" parent="Xg7zsC55FOMhdoDRZeXA-6" vertex="1">
          <mxGeometry x="87" width="43" height="20" as="geometry">
            <mxRectangle width="43" height="20" as="alternateBounds" />
          </mxGeometry>
        </mxCell>
        <mxCell id="Xg7zsC55FOMhdoDRZeXA-10" value="" style="shape=tableRow;horizontal=0;startSize=0;swimlaneHead=0;swimlaneBody=0;strokeColor=inherit;top=0;left=0;bottom=0;right=0;collapsible=0;dropTarget=0;fillColor=none;points=[[0,0.5],[1,0.5]];portConstraint=eastwest;fontSize=16;movable=1;resizable=1;rotatable=1;deletable=1;editable=1;locked=0;connectable=1;" parent="Xg7zsC55FOMhdoDRZeXA-1" vertex="1">
          <mxGeometry y="70" width="130" height="20" as="geometry" />
        </mxCell>
        <mxCell id="Xg7zsC55FOMhdoDRZeXA-11" value="" style="shape=partialRectangle;html=1;whiteSpace=wrap;connectable=1;strokeColor=inherit;overflow=hidden;fillColor=none;top=0;left=0;bottom=0;right=0;pointerEvents=1;fontSize=16;movable=1;resizable=1;rotatable=1;deletable=1;editable=1;locked=0;" parent="Xg7zsC55FOMhdoDRZeXA-10" vertex="1">
          <mxGeometry width="43" height="20" as="geometry">
            <mxRectangle width="43" height="20" as="alternateBounds" />
          </mxGeometry>
        </mxCell>
        <mxCell id="Xg7zsC55FOMhdoDRZeXA-12" value="" style="shape=partialRectangle;html=1;whiteSpace=wrap;connectable=1;strokeColor=inherit;overflow=hidden;fillColor=none;top=0;left=0;bottom=0;right=0;pointerEvents=1;fontSize=16;movable=1;resizable=1;rotatable=1;deletable=1;editable=1;locked=0;" parent="Xg7zsC55FOMhdoDRZeXA-10" vertex="1">
          <mxGeometry x="43" width="44" height="20" as="geometry">
            <mxRectangle width="44" height="20" as="alternateBounds" />
          </mxGeometry>
        </mxCell>
        <mxCell id="Xg7zsC55FOMhdoDRZeXA-13" value="" style="shape=partialRectangle;html=1;whiteSpace=wrap;connectable=1;strokeColor=inherit;overflow=hidden;fillColor=none;top=0;left=0;bottom=0;right=0;pointerEvents=1;fontSize=16;movable=1;resizable=1;rotatable=1;deletable=1;editable=1;locked=0;" parent="Xg7zsC55FOMhdoDRZeXA-10" vertex="1">
          <mxGeometry x="87" width="43" height="20" as="geometry">
            <mxRectangle width="43" height="20" as="alternateBounds" />
          </mxGeometry>
        </mxCell>
        <mxCell id="Xg7zsC55FOMhdoDRZeXA-14" value="方格矩阵" style="shape=table;startSize=30;container=1;collapsible=0;childLayout=tableLayout;strokeColor=default;fontSize=16;movable=1;resizable=1;rotatable=1;deletable=1;editable=1;locked=0;connectable=1;" parent="1" vertex="1">
          <mxGeometry x="300" y="575" width="130" height="90" as="geometry" />
        </mxCell>
        <mxCell id="Xg7zsC55FOMhdoDRZeXA-15" value="" style="shape=tableRow;horizontal=0;startSize=0;swimlaneHead=0;swimlaneBody=0;strokeColor=inherit;top=0;left=0;bottom=0;right=0;collapsible=0;dropTarget=0;fillColor=none;points=[[0,0.5],[1,0.5]];portConstraint=eastwest;fontSize=16;movable=1;resizable=1;rotatable=1;deletable=1;editable=1;locked=0;connectable=1;" parent="Xg7zsC55FOMhdoDRZeXA-14" vertex="1">
          <mxGeometry y="30" width="130" height="20" as="geometry" />
        </mxCell>
        <mxCell id="Xg7zsC55FOMhdoDRZeXA-16" value="" style="shape=partialRectangle;html=1;whiteSpace=wrap;connectable=1;strokeColor=inherit;overflow=hidden;fillColor=none;top=0;left=0;bottom=0;right=0;pointerEvents=1;fontSize=16;movable=1;resizable=1;rotatable=1;deletable=1;editable=1;locked=0;" parent="Xg7zsC55FOMhdoDRZeXA-15" vertex="1">
          <mxGeometry width="43" height="20" as="geometry">
            <mxRectangle width="43" height="20" as="alternateBounds" />
          </mxGeometry>
        </mxCell>
        <mxCell id="Xg7zsC55FOMhdoDRZeXA-17" value="" style="shape=partialRectangle;html=1;whiteSpace=wrap;connectable=1;strokeColor=inherit;overflow=hidden;fillColor=none;top=0;left=0;bottom=0;right=0;pointerEvents=1;fontSize=16;movable=1;resizable=1;rotatable=1;deletable=1;editable=1;locked=0;" parent="Xg7zsC55FOMhdoDRZeXA-15" vertex="1">
          <mxGeometry x="43" width="44" height="20" as="geometry">
            <mxRectangle width="44" height="20" as="alternateBounds" />
          </mxGeometry>
        </mxCell>
        <mxCell id="Xg7zsC55FOMhdoDRZeXA-18" value="" style="shape=partialRectangle;html=1;whiteSpace=wrap;connectable=1;strokeColor=inherit;overflow=hidden;fillColor=none;top=0;left=0;bottom=0;right=0;pointerEvents=1;fontSize=16;movable=1;resizable=1;rotatable=1;deletable=1;editable=1;locked=0;" parent="Xg7zsC55FOMhdoDRZeXA-15" vertex="1">
          <mxGeometry x="87" width="43" height="20" as="geometry">
            <mxRectangle width="43" height="20" as="alternateBounds" />
          </mxGeometry>
        </mxCell>
        <mxCell id="Xg7zsC55FOMhdoDRZeXA-19" value="" style="shape=tableRow;horizontal=0;startSize=0;swimlaneHead=0;swimlaneBody=0;strokeColor=inherit;top=0;left=0;bottom=0;right=0;collapsible=0;dropTarget=0;fillColor=none;points=[[0,0.5],[1,0.5]];portConstraint=eastwest;fontSize=16;movable=1;resizable=1;rotatable=1;deletable=1;editable=1;locked=0;connectable=1;" parent="Xg7zsC55FOMhdoDRZeXA-14" vertex="1">
          <mxGeometry y="50" width="130" height="20" as="geometry" />
        </mxCell>
        <mxCell id="Xg7zsC55FOMhdoDRZeXA-20" value="" style="shape=partialRectangle;html=1;whiteSpace=wrap;connectable=1;strokeColor=inherit;overflow=hidden;fillColor=none;top=0;left=0;bottom=0;right=0;pointerEvents=1;fontSize=16;movable=1;resizable=1;rotatable=1;deletable=1;editable=1;locked=0;" parent="Xg7zsC55FOMhdoDRZeXA-19" vertex="1">
          <mxGeometry width="43" height="20" as="geometry">
            <mxRectangle width="43" height="20" as="alternateBounds" />
          </mxGeometry>
        </mxCell>
        <mxCell id="Xg7zsC55FOMhdoDRZeXA-21" value="" style="shape=partialRectangle;html=1;whiteSpace=wrap;connectable=1;strokeColor=inherit;overflow=hidden;fillColor=none;top=0;left=0;bottom=0;right=0;pointerEvents=1;fontSize=16;movable=1;resizable=1;rotatable=1;deletable=1;editable=1;locked=0;" parent="Xg7zsC55FOMhdoDRZeXA-19" vertex="1">
          <mxGeometry x="43" width="44" height="20" as="geometry">
            <mxRectangle width="44" height="20" as="alternateBounds" />
          </mxGeometry>
        </mxCell>
        <mxCell id="Xg7zsC55FOMhdoDRZeXA-22" value="" style="shape=partialRectangle;html=1;whiteSpace=wrap;connectable=1;strokeColor=inherit;overflow=hidden;fillColor=none;top=0;left=0;bottom=0;right=0;pointerEvents=1;fontSize=16;movable=1;resizable=1;rotatable=1;deletable=1;editable=1;locked=0;" parent="Xg7zsC55FOMhdoDRZeXA-19" vertex="1">
          <mxGeometry x="87" width="43" height="20" as="geometry">
            <mxRectangle width="43" height="20" as="alternateBounds" />
          </mxGeometry>
        </mxCell>
        <mxCell id="Xg7zsC55FOMhdoDRZeXA-23" value="" style="shape=tableRow;horizontal=0;startSize=0;swimlaneHead=0;swimlaneBody=0;strokeColor=inherit;top=0;left=0;bottom=0;right=0;collapsible=0;dropTarget=0;fillColor=none;points=[[0,0.5],[1,0.5]];portConstraint=eastwest;fontSize=16;movable=1;resizable=1;rotatable=1;deletable=1;editable=1;locked=0;connectable=1;" parent="Xg7zsC55FOMhdoDRZeXA-14" vertex="1">
          <mxGeometry y="70" width="130" height="20" as="geometry" />
        </mxCell>
        <mxCell id="Xg7zsC55FOMhdoDRZeXA-24" value="" style="shape=partialRectangle;html=1;whiteSpace=wrap;connectable=1;strokeColor=inherit;overflow=hidden;fillColor=none;top=0;left=0;bottom=0;right=0;pointerEvents=1;fontSize=16;movable=1;resizable=1;rotatable=1;deletable=1;editable=1;locked=0;" parent="Xg7zsC55FOMhdoDRZeXA-23" vertex="1">
          <mxGeometry width="43" height="20" as="geometry">
            <mxRectangle width="43" height="20" as="alternateBounds" />
          </mxGeometry>
        </mxCell>
        <mxCell id="Xg7zsC55FOMhdoDRZeXA-25" value="" style="shape=partialRectangle;html=1;whiteSpace=wrap;connectable=1;strokeColor=inherit;overflow=hidden;fillColor=none;top=0;left=0;bottom=0;right=0;pointerEvents=1;fontSize=16;movable=1;resizable=1;rotatable=1;deletable=1;editable=1;locked=0;" parent="Xg7zsC55FOMhdoDRZeXA-23" vertex="1">
          <mxGeometry x="43" width="44" height="20" as="geometry">
            <mxRectangle width="44" height="20" as="alternateBounds" />
          </mxGeometry>
        </mxCell>
        <mxCell id="Xg7zsC55FOMhdoDRZeXA-26" value="" style="shape=partialRectangle;html=1;whiteSpace=wrap;connectable=1;strokeColor=inherit;overflow=hidden;fillColor=none;top=0;left=0;bottom=0;right=0;pointerEvents=1;fontSize=16;movable=1;resizable=1;rotatable=1;deletable=1;editable=1;locked=0;" parent="Xg7zsC55FOMhdoDRZeXA-23" vertex="1">
          <mxGeometry x="87" width="43" height="20" as="geometry">
            <mxRectangle width="43" height="20" as="alternateBounds" />
          </mxGeometry>
        </mxCell>
        <mxCell id="Xg7zsC55FOMhdoDRZeXA-27" value="方格矩阵" style="shape=table;startSize=30;container=1;collapsible=0;childLayout=tableLayout;strokeColor=default;fontSize=16;movable=1;resizable=1;rotatable=1;deletable=1;editable=1;locked=0;connectable=1;" parent="1" vertex="1">
          <mxGeometry x="485" y="575" width="130" height="90" as="geometry" />
        </mxCell>
        <mxCell id="Xg7zsC55FOMhdoDRZeXA-28" value="" style="shape=tableRow;horizontal=0;startSize=0;swimlaneHead=0;swimlaneBody=0;strokeColor=inherit;top=0;left=0;bottom=0;right=0;collapsible=0;dropTarget=0;fillColor=none;points=[[0,0.5],[1,0.5]];portConstraint=eastwest;fontSize=16;movable=1;resizable=1;rotatable=1;deletable=1;editable=1;locked=0;connectable=1;" parent="Xg7zsC55FOMhdoDRZeXA-27" vertex="1">
          <mxGeometry y="30" width="130" height="20" as="geometry" />
        </mxCell>
        <mxCell id="Xg7zsC55FOMhdoDRZeXA-29" value="" style="shape=partialRectangle;html=1;whiteSpace=wrap;connectable=1;strokeColor=inherit;overflow=hidden;fillColor=none;top=0;left=0;bottom=0;right=0;pointerEvents=1;fontSize=16;movable=1;resizable=1;rotatable=1;deletable=1;editable=1;locked=0;" parent="Xg7zsC55FOMhdoDRZeXA-28" vertex="1">
          <mxGeometry width="43" height="20" as="geometry">
            <mxRectangle width="43" height="20" as="alternateBounds" />
          </mxGeometry>
        </mxCell>
        <mxCell id="Xg7zsC55FOMhdoDRZeXA-30" value="" style="shape=partialRectangle;html=1;whiteSpace=wrap;connectable=1;strokeColor=inherit;overflow=hidden;fillColor=none;top=0;left=0;bottom=0;right=0;pointerEvents=1;fontSize=16;movable=1;resizable=1;rotatable=1;deletable=1;editable=1;locked=0;" parent="Xg7zsC55FOMhdoDRZeXA-28" vertex="1">
          <mxGeometry x="43" width="44" height="20" as="geometry">
            <mxRectangle width="44" height="20" as="alternateBounds" />
          </mxGeometry>
        </mxCell>
        <mxCell id="Xg7zsC55FOMhdoDRZeXA-31" value="" style="shape=partialRectangle;html=1;whiteSpace=wrap;connectable=1;strokeColor=inherit;overflow=hidden;fillColor=none;top=0;left=0;bottom=0;right=0;pointerEvents=1;fontSize=16;movable=1;resizable=1;rotatable=1;deletable=1;editable=1;locked=0;" parent="Xg7zsC55FOMhdoDRZeXA-28" vertex="1">
          <mxGeometry x="87" width="43" height="20" as="geometry">
            <mxRectangle width="43" height="20" as="alternateBounds" />
          </mxGeometry>
        </mxCell>
        <mxCell id="Xg7zsC55FOMhdoDRZeXA-32" value="" style="shape=tableRow;horizontal=0;startSize=0;swimlaneHead=0;swimlaneBody=0;strokeColor=inherit;top=0;left=0;bottom=0;right=0;collapsible=0;dropTarget=0;fillColor=none;points=[[0,0.5],[1,0.5]];portConstraint=eastwest;fontSize=16;movable=1;resizable=1;rotatable=1;deletable=1;editable=1;locked=0;connectable=1;" parent="Xg7zsC55FOMhdoDRZeXA-27" vertex="1">
          <mxGeometry y="50" width="130" height="20" as="geometry" />
        </mxCell>
        <mxCell id="Xg7zsC55FOMhdoDRZeXA-33" value="" style="shape=partialRectangle;html=1;whiteSpace=wrap;connectable=1;strokeColor=inherit;overflow=hidden;fillColor=none;top=0;left=0;bottom=0;right=0;pointerEvents=1;fontSize=16;movable=1;resizable=1;rotatable=1;deletable=1;editable=1;locked=0;" parent="Xg7zsC55FOMhdoDRZeXA-32" vertex="1">
          <mxGeometry width="43" height="20" as="geometry">
            <mxRectangle width="43" height="20" as="alternateBounds" />
          </mxGeometry>
        </mxCell>
        <mxCell id="Xg7zsC55FOMhdoDRZeXA-34" value="" style="shape=partialRectangle;html=1;whiteSpace=wrap;connectable=1;strokeColor=inherit;overflow=hidden;fillColor=none;top=0;left=0;bottom=0;right=0;pointerEvents=1;fontSize=16;movable=1;resizable=1;rotatable=1;deletable=1;editable=1;locked=0;" parent="Xg7zsC55FOMhdoDRZeXA-32" vertex="1">
          <mxGeometry x="43" width="44" height="20" as="geometry">
            <mxRectangle width="44" height="20" as="alternateBounds" />
          </mxGeometry>
        </mxCell>
        <mxCell id="Xg7zsC55FOMhdoDRZeXA-35" value="" style="shape=partialRectangle;html=1;whiteSpace=wrap;connectable=1;strokeColor=inherit;overflow=hidden;fillColor=none;top=0;left=0;bottom=0;right=0;pointerEvents=1;fontSize=16;movable=1;resizable=1;rotatable=1;deletable=1;editable=1;locked=0;" parent="Xg7zsC55FOMhdoDRZeXA-32" vertex="1">
          <mxGeometry x="87" width="43" height="20" as="geometry">
            <mxRectangle width="43" height="20" as="alternateBounds" />
          </mxGeometry>
        </mxCell>
        <mxCell id="Xg7zsC55FOMhdoDRZeXA-36" value="" style="shape=tableRow;horizontal=0;startSize=0;swimlaneHead=0;swimlaneBody=0;strokeColor=inherit;top=0;left=0;bottom=0;right=0;collapsible=0;dropTarget=0;fillColor=none;points=[[0,0.5],[1,0.5]];portConstraint=eastwest;fontSize=16;movable=1;resizable=1;rotatable=1;deletable=1;editable=1;locked=0;connectable=1;" parent="Xg7zsC55FOMhdoDRZeXA-27" vertex="1">
          <mxGeometry y="70" width="130" height="20" as="geometry" />
        </mxCell>
        <mxCell id="Xg7zsC55FOMhdoDRZeXA-37" value="" style="shape=partialRectangle;html=1;whiteSpace=wrap;connectable=1;strokeColor=inherit;overflow=hidden;fillColor=none;top=0;left=0;bottom=0;right=0;pointerEvents=1;fontSize=16;movable=1;resizable=1;rotatable=1;deletable=1;editable=1;locked=0;" parent="Xg7zsC55FOMhdoDRZeXA-36" vertex="1">
          <mxGeometry width="43" height="20" as="geometry">
            <mxRectangle width="43" height="20" as="alternateBounds" />
          </mxGeometry>
        </mxCell>
        <mxCell id="Xg7zsC55FOMhdoDRZeXA-38" value="" style="shape=partialRectangle;html=1;whiteSpace=wrap;connectable=1;strokeColor=inherit;overflow=hidden;fillColor=none;top=0;left=0;bottom=0;right=0;pointerEvents=1;fontSize=16;movable=1;resizable=1;rotatable=1;deletable=1;editable=1;locked=0;" parent="Xg7zsC55FOMhdoDRZeXA-36" vertex="1">
          <mxGeometry x="43" width="44" height="20" as="geometry">
            <mxRectangle width="44" height="20" as="alternateBounds" />
          </mxGeometry>
        </mxCell>
        <mxCell id="Xg7zsC55FOMhdoDRZeXA-39" value="" style="shape=partialRectangle;html=1;whiteSpace=wrap;connectable=1;strokeColor=inherit;overflow=hidden;fillColor=none;top=0;left=0;bottom=0;right=0;pointerEvents=1;fontSize=16;movable=1;resizable=1;rotatable=1;deletable=1;editable=1;locked=0;" parent="Xg7zsC55FOMhdoDRZeXA-36" vertex="1">
          <mxGeometry x="87" width="43" height="20" as="geometry">
            <mxRectangle width="43" height="20" as="alternateBounds" />
          </mxGeometry>
        </mxCell>
        <mxCell id="Xg7zsC55FOMhdoDRZeXA-40" value="方格矩阵" style="shape=table;startSize=30;container=1;collapsible=0;childLayout=tableLayout;strokeColor=default;fontSize=16;movable=1;resizable=1;rotatable=1;deletable=1;editable=1;locked=0;connectable=1;" parent="1" vertex="1">
          <mxGeometry x="680" y="575" width="130" height="90" as="geometry" />
        </mxCell>
        <mxCell id="Xg7zsC55FOMhdoDRZeXA-41" value="" style="shape=tableRow;horizontal=0;startSize=0;swimlaneHead=0;swimlaneBody=0;strokeColor=inherit;top=0;left=0;bottom=0;right=0;collapsible=0;dropTarget=0;fillColor=none;points=[[0,0.5],[1,0.5]];portConstraint=eastwest;fontSize=16;movable=1;resizable=1;rotatable=1;deletable=1;editable=1;locked=0;connectable=1;" parent="Xg7zsC55FOMhdoDRZeXA-40" vertex="1">
          <mxGeometry y="30" width="130" height="20" as="geometry" />
        </mxCell>
        <mxCell id="Xg7zsC55FOMhdoDRZeXA-42" value="" style="shape=partialRectangle;html=1;whiteSpace=wrap;connectable=1;strokeColor=inherit;overflow=hidden;fillColor=none;top=0;left=0;bottom=0;right=0;pointerEvents=1;fontSize=16;movable=1;resizable=1;rotatable=1;deletable=1;editable=1;locked=0;" parent="Xg7zsC55FOMhdoDRZeXA-41" vertex="1">
          <mxGeometry width="43" height="20" as="geometry">
            <mxRectangle width="43" height="20" as="alternateBounds" />
          </mxGeometry>
        </mxCell>
        <mxCell id="Xg7zsC55FOMhdoDRZeXA-43" value="" style="shape=partialRectangle;html=1;whiteSpace=wrap;connectable=1;strokeColor=inherit;overflow=hidden;fillColor=none;top=0;left=0;bottom=0;right=0;pointerEvents=1;fontSize=16;movable=1;resizable=1;rotatable=1;deletable=1;editable=1;locked=0;" parent="Xg7zsC55FOMhdoDRZeXA-41" vertex="1">
          <mxGeometry x="43" width="44" height="20" as="geometry">
            <mxRectangle width="44" height="20" as="alternateBounds" />
          </mxGeometry>
        </mxCell>
        <mxCell id="Xg7zsC55FOMhdoDRZeXA-44" value="" style="shape=partialRectangle;html=1;whiteSpace=wrap;connectable=1;strokeColor=inherit;overflow=hidden;fillColor=none;top=0;left=0;bottom=0;right=0;pointerEvents=1;fontSize=16;movable=1;resizable=1;rotatable=1;deletable=1;editable=1;locked=0;" parent="Xg7zsC55FOMhdoDRZeXA-41" vertex="1">
          <mxGeometry x="87" width="43" height="20" as="geometry">
            <mxRectangle width="43" height="20" as="alternateBounds" />
          </mxGeometry>
        </mxCell>
        <mxCell id="Xg7zsC55FOMhdoDRZeXA-45" value="" style="shape=tableRow;horizontal=0;startSize=0;swimlaneHead=0;swimlaneBody=0;strokeColor=inherit;top=0;left=0;bottom=0;right=0;collapsible=0;dropTarget=0;fillColor=none;points=[[0,0.5],[1,0.5]];portConstraint=eastwest;fontSize=16;movable=1;resizable=1;rotatable=1;deletable=1;editable=1;locked=0;connectable=1;" parent="Xg7zsC55FOMhdoDRZeXA-40" vertex="1">
          <mxGeometry y="50" width="130" height="20" as="geometry" />
        </mxCell>
        <mxCell id="Xg7zsC55FOMhdoDRZeXA-46" value="" style="shape=partialRectangle;html=1;whiteSpace=wrap;connectable=1;strokeColor=inherit;overflow=hidden;fillColor=none;top=0;left=0;bottom=0;right=0;pointerEvents=1;fontSize=16;movable=1;resizable=1;rotatable=1;deletable=1;editable=1;locked=0;" parent="Xg7zsC55FOMhdoDRZeXA-45" vertex="1">
          <mxGeometry width="43" height="20" as="geometry">
            <mxRectangle width="43" height="20" as="alternateBounds" />
          </mxGeometry>
        </mxCell>
        <mxCell id="Xg7zsC55FOMhdoDRZeXA-47" value="" style="shape=partialRectangle;html=1;whiteSpace=wrap;connectable=1;strokeColor=inherit;overflow=hidden;fillColor=none;top=0;left=0;bottom=0;right=0;pointerEvents=1;fontSize=16;movable=1;resizable=1;rotatable=1;deletable=1;editable=1;locked=0;" parent="Xg7zsC55FOMhdoDRZeXA-45" vertex="1">
          <mxGeometry x="43" width="44" height="20" as="geometry">
            <mxRectangle width="44" height="20" as="alternateBounds" />
          </mxGeometry>
        </mxCell>
        <mxCell id="Xg7zsC55FOMhdoDRZeXA-48" value="" style="shape=partialRectangle;html=1;whiteSpace=wrap;connectable=1;strokeColor=inherit;overflow=hidden;fillColor=none;top=0;left=0;bottom=0;right=0;pointerEvents=1;fontSize=16;movable=1;resizable=1;rotatable=1;deletable=1;editable=1;locked=0;" parent="Xg7zsC55FOMhdoDRZeXA-45" vertex="1">
          <mxGeometry x="87" width="43" height="20" as="geometry">
            <mxRectangle width="43" height="20" as="alternateBounds" />
          </mxGeometry>
        </mxCell>
        <mxCell id="Xg7zsC55FOMhdoDRZeXA-49" value="" style="shape=tableRow;horizontal=0;startSize=0;swimlaneHead=0;swimlaneBody=0;strokeColor=inherit;top=0;left=0;bottom=0;right=0;collapsible=0;dropTarget=0;fillColor=none;points=[[0,0.5],[1,0.5]];portConstraint=eastwest;fontSize=16;movable=1;resizable=1;rotatable=1;deletable=1;editable=1;locked=0;connectable=1;" parent="Xg7zsC55FOMhdoDRZeXA-40" vertex="1">
          <mxGeometry y="70" width="130" height="20" as="geometry" />
        </mxCell>
        <mxCell id="Xg7zsC55FOMhdoDRZeXA-50" value="" style="shape=partialRectangle;html=1;whiteSpace=wrap;connectable=1;strokeColor=inherit;overflow=hidden;fillColor=none;top=0;left=0;bottom=0;right=0;pointerEvents=1;fontSize=16;movable=1;resizable=1;rotatable=1;deletable=1;editable=1;locked=0;" parent="Xg7zsC55FOMhdoDRZeXA-49" vertex="1">
          <mxGeometry width="43" height="20" as="geometry">
            <mxRectangle width="43" height="20" as="alternateBounds" />
          </mxGeometry>
        </mxCell>
        <mxCell id="Xg7zsC55FOMhdoDRZeXA-51" value="" style="shape=partialRectangle;html=1;whiteSpace=wrap;connectable=1;strokeColor=inherit;overflow=hidden;fillColor=none;top=0;left=0;bottom=0;right=0;pointerEvents=1;fontSize=16;movable=1;resizable=1;rotatable=1;deletable=1;editable=1;locked=0;" parent="Xg7zsC55FOMhdoDRZeXA-49" vertex="1">
          <mxGeometry x="43" width="44" height="20" as="geometry">
            <mxRectangle width="44" height="20" as="alternateBounds" />
          </mxGeometry>
        </mxCell>
        <mxCell id="Xg7zsC55FOMhdoDRZeXA-52" value="" style="shape=partialRectangle;html=1;whiteSpace=wrap;connectable=1;strokeColor=inherit;overflow=hidden;fillColor=none;top=0;left=0;bottom=0;right=0;pointerEvents=1;fontSize=16;movable=1;resizable=1;rotatable=1;deletable=1;editable=1;locked=0;" parent="Xg7zsC55FOMhdoDRZeXA-49" vertex="1">
          <mxGeometry x="87" width="43" height="20" as="geometry">
            <mxRectangle width="43" height="20" as="alternateBounds" />
          </mxGeometry>
        </mxCell>
        <mxCell id="Xg7zsC55FOMhdoDRZeXA-53" value="串口异步收发模块" style="rounded=0;whiteSpace=wrap;html=1;movable=1;resizable=1;rotatable=1;deletable=1;editable=1;locked=0;connectable=1;" parent="1" vertex="1">
          <mxGeometry x="890" y="490" width="60" height="60" as="geometry" />
        </mxCell>
        <mxCell id="Xg7zsC55FOMhdoDRZeXA-54" value="串口异步收发模块" style="rounded=0;whiteSpace=wrap;html=1;movable=1;resizable=1;rotatable=1;deletable=1;editable=1;locked=0;connectable=1;" parent="1" vertex="1">
          <mxGeometry x="700" y="490" width="60" height="60" as="geometry" />
        </mxCell>
        <mxCell id="Xg7zsC55FOMhdoDRZeXA-55" value="串口异步收发模块" style="rounded=0;whiteSpace=wrap;html=1;movable=1;resizable=1;rotatable=1;deletable=1;editable=1;locked=0;connectable=1;" parent="1" vertex="1">
          <mxGeometry x="520" y="490" width="60" height="60" as="geometry" />
        </mxCell>
        <mxCell id="Xg7zsC55FOMhdoDRZeXA-56" value="串口异步收发模块" style="rounded=0;whiteSpace=wrap;html=1;movable=1;resizable=1;rotatable=1;deletable=1;editable=1;locked=0;connectable=1;" parent="1" vertex="1">
          <mxGeometry x="320" y="480" width="60" height="60" as="geometry" />
        </mxCell>
        <mxCell id="Xg7zsC55FOMhdoDRZeXA-58" value="定时器线程" style="rounded=0;whiteSpace=wrap;html=1;align=left;verticalAlign=top;movable=1;resizable=1;rotatable=1;deletable=1;editable=1;locked=0;connectable=1;fontSize=18;" parent="1" vertex="1">
          <mxGeometry x="660" y="120" width="330" height="110" as="geometry" />
        </mxCell>
        <mxCell id="Xg7zsC55FOMhdoDRZeXA-66" value="" style="shape=flexArrow;endArrow=classic;startArrow=classic;html=1;rounded=0;movable=1;resizable=1;rotatable=1;deletable=1;editable=1;locked=0;connectable=1;" parent="1" edge="1">
          <mxGeometry width="100" height="100" relative="1" as="geometry">
            <mxPoint x="910" y="480" as="sourcePoint" />
            <mxPoint x="887" y="380" as="targetPoint" />
          </mxGeometry>
        </mxCell>
        <mxCell id="Xg7zsC55FOMhdoDRZeXA-68" value="" style="shape=flexArrow;endArrow=classic;startArrow=classic;html=1;rounded=0;movable=1;resizable=1;rotatable=1;deletable=1;editable=1;locked=0;connectable=1;" parent="1" edge="1">
          <mxGeometry width="100" height="100" relative="1" as="geometry">
            <mxPoint x="720" y="470" as="sourcePoint" />
            <mxPoint x="730" y="370" as="targetPoint" />
          </mxGeometry>
        </mxCell>
        <mxCell id="Xg7zsC55FOMhdoDRZeXA-69" value="" style="shape=flexArrow;endArrow=classic;startArrow=classic;html=1;rounded=0;movable=1;resizable=1;rotatable=1;deletable=1;editable=1;locked=0;connectable=1;" parent="1" edge="1">
          <mxGeometry width="100" height="100" relative="1" as="geometry">
            <mxPoint x="540" y="480" as="sourcePoint" />
            <mxPoint x="560" y="370" as="targetPoint" />
          </mxGeometry>
        </mxCell>
        <mxCell id="Xg7zsC55FOMhdoDRZeXA-70" value="" style="shape=flexArrow;endArrow=classic;startArrow=classic;html=1;rounded=0;movable=1;resizable=1;rotatable=1;deletable=1;editable=1;locked=0;connectable=1;" parent="1" edge="1">
          <mxGeometry width="100" height="100" relative="1" as="geometry">
            <mxPoint x="400" y="380" as="sourcePoint" />
            <mxPoint x="360" y="470" as="targetPoint" />
          </mxGeometry>
        </mxCell>
        <mxCell id="Xg7zsC55FOMhdoDRZeXA-72" value="一个完整的frame，存储了当前方格的颜色和反馈状态" style="rounded=0;whiteSpace=wrap;html=1;movable=1;resizable=1;rotatable=1;deletable=1;editable=1;locked=0;connectable=1;fontSize=21;" parent="1" vertex="1">
          <mxGeometry x="1020" y="270" width="276" height="100" as="geometry" />
        </mxCell>
        <mxCell id="Xg7zsC55FOMhdoDRZeXA-74" value="反馈处理" style="rounded=0;whiteSpace=wrap;html=1;align=left;verticalAlign=top;movable=1;resizable=1;rotatable=1;deletable=1;editable=1;locked=0;connectable=1;fontSize=18;" parent="1" vertex="1">
          <mxGeometry x="310" y="120" width="310" height="110" as="geometry" />
        </mxCell>
        <mxCell id="Xg7zsC55FOMhdoDRZeXA-76" value="判断当前方格的反馈，例如踩踏到红色格子了更新对应格子的颜色为白色" style="rounded=0;whiteSpace=wrap;html=1;movable=1;resizable=1;rotatable=1;deletable=1;editable=1;locked=0;connectable=1;fontSize=17;" parent="1" vertex="1">
          <mxGeometry x="390" y="150" width="200" height="72.5" as="geometry" />
        </mxCell>
        <mxCell id="Xg7zsC55FOMhdoDRZeXA-77" value="更新方格的变化，并带上反馈后的效果。刷新画面" style="rounded=0;whiteSpace=wrap;html=1;movable=1;resizable=1;rotatable=1;deletable=1;editable=1;locked=0;connectable=1;fontSize=15;" parent="1" vertex="1">
          <mxGeometry x="780" y="146.25" width="170" height="76.25" as="geometry" />
        </mxCell>
        <mxCell id="Xg7zsC55FOMhdoDRZeXA-78" value="游戏的逻辑实现层" style="rounded=0;whiteSpace=wrap;html=1;movable=1;resizable=1;rotatable=1;deletable=1;editable=1;locked=0;connectable=1;fontSize=22;" parent="1" vertex="1">
          <mxGeometry x="290" y="-50" width="730" height="140" as="geometry" />
        </mxCell>
        <mxCell id="AAO-jaJHOTtID8i3oc5R-173" value="" style="shape=table;startSize=0;container=1;collapsible=0;childLayout=tableLayout;fontSize=16;strokeWidth=5;" vertex="1" parent="1">
          <mxGeometry x="300" y="250" width="690" height="120" as="geometry" />
        </mxCell>
        <mxCell id="AAO-jaJHOTtID8i3oc5R-174" value="" style="shape=tableRow;horizontal=0;startSize=0;swimlaneHead=0;swimlaneBody=0;strokeColor=inherit;top=0;left=0;bottom=0;right=0;collapsible=0;dropTarget=0;fillColor=none;points=[[0,0.5],[1,0.5]];portConstraint=eastwest;fontSize=16;strokeWidth=5;" vertex="1" parent="AAO-jaJHOTtID8i3oc5R-173">
          <mxGeometry width="690" height="40" as="geometry" />
        </mxCell>
        <mxCell id="AAO-jaJHOTtID8i3oc5R-175" value="" style="shape=partialRectangle;html=1;whiteSpace=wrap;connectable=0;strokeColor=#666666;overflow=hidden;fillColor=#f5f5f5;top=0;left=0;bottom=0;right=0;pointerEvents=1;fontSize=16;fontColor=#333333;strokeWidth=5;" vertex="1" parent="AAO-jaJHOTtID8i3oc5R-174">
          <mxGeometry width="58" height="40" as="geometry">
            <mxRectangle width="58" height="40" as="alternateBounds" />
          </mxGeometry>
        </mxCell>
        <mxCell id="AAO-jaJHOTtID8i3oc5R-176" value="" style="shape=partialRectangle;html=1;whiteSpace=wrap;connectable=0;strokeColor=#666666;overflow=hidden;fillColor=#f5f5f5;top=0;left=0;bottom=0;right=0;pointerEvents=1;fontSize=16;fontColor=#333333;strokeWidth=5;" vertex="1" parent="AAO-jaJHOTtID8i3oc5R-174">
          <mxGeometry x="58" width="57" height="40" as="geometry">
            <mxRectangle width="57" height="40" as="alternateBounds" />
          </mxGeometry>
        </mxCell>
        <mxCell id="AAO-jaJHOTtID8i3oc5R-177" value="" style="shape=partialRectangle;html=1;whiteSpace=wrap;connectable=0;strokeColor=#666666;overflow=hidden;fillColor=#f5f5f5;top=0;left=0;bottom=0;right=0;pointerEvents=1;fontSize=16;fontColor=#333333;strokeWidth=5;" vertex="1" parent="AAO-jaJHOTtID8i3oc5R-174">
          <mxGeometry x="115" width="58" height="40" as="geometry">
            <mxRectangle width="58" height="40" as="alternateBounds" />
          </mxGeometry>
        </mxCell>
        <mxCell id="AAO-jaJHOTtID8i3oc5R-186" style="shape=partialRectangle;html=1;whiteSpace=wrap;connectable=0;strokeColor=#6c8ebf;overflow=hidden;fillColor=#dae8fc;top=0;left=0;bottom=0;right=0;pointerEvents=1;fontSize=16;strokeWidth=5;" vertex="1" parent="AAO-jaJHOTtID8i3oc5R-174">
          <mxGeometry x="173" width="57" height="40" as="geometry">
            <mxRectangle width="57" height="40" as="alternateBounds" />
          </mxGeometry>
        </mxCell>
        <mxCell id="AAO-jaJHOTtID8i3oc5R-189" style="shape=partialRectangle;html=1;whiteSpace=wrap;connectable=0;strokeColor=#6c8ebf;overflow=hidden;fillColor=#dae8fc;top=0;left=0;bottom=0;right=0;pointerEvents=1;fontSize=16;strokeWidth=5;" vertex="1" parent="AAO-jaJHOTtID8i3oc5R-174">
          <mxGeometry x="230" width="58" height="40" as="geometry">
            <mxRectangle width="58" height="40" as="alternateBounds" />
          </mxGeometry>
        </mxCell>
        <mxCell id="AAO-jaJHOTtID8i3oc5R-192" style="shape=partialRectangle;html=1;whiteSpace=wrap;connectable=0;strokeColor=#6c8ebf;overflow=hidden;fillColor=#dae8fc;top=0;left=0;bottom=0;right=0;pointerEvents=1;fontSize=16;strokeWidth=5;" vertex="1" parent="AAO-jaJHOTtID8i3oc5R-174">
          <mxGeometry x="288" width="57" height="40" as="geometry">
            <mxRectangle width="57" height="40" as="alternateBounds" />
          </mxGeometry>
        </mxCell>
        <mxCell id="AAO-jaJHOTtID8i3oc5R-195" style="shape=partialRectangle;html=1;whiteSpace=wrap;connectable=0;strokeColor=#d6b656;overflow=hidden;fillColor=#fff2cc;top=0;left=0;bottom=0;right=0;pointerEvents=1;fontSize=16;strokeWidth=5;" vertex="1" parent="AAO-jaJHOTtID8i3oc5R-174">
          <mxGeometry x="345" width="58" height="40" as="geometry">
            <mxRectangle width="58" height="40" as="alternateBounds" />
          </mxGeometry>
        </mxCell>
        <mxCell id="AAO-jaJHOTtID8i3oc5R-198" style="shape=partialRectangle;html=1;whiteSpace=wrap;connectable=0;strokeColor=#d6b656;overflow=hidden;fillColor=#fff2cc;top=0;left=0;bottom=0;right=0;pointerEvents=1;fontSize=16;strokeWidth=5;" vertex="1" parent="AAO-jaJHOTtID8i3oc5R-174">
          <mxGeometry x="403" width="57" height="40" as="geometry">
            <mxRectangle width="57" height="40" as="alternateBounds" />
          </mxGeometry>
        </mxCell>
        <mxCell id="AAO-jaJHOTtID8i3oc5R-201" style="shape=partialRectangle;html=1;whiteSpace=wrap;connectable=0;strokeColor=#d6b656;overflow=hidden;fillColor=#fff2cc;top=0;left=0;bottom=0;right=0;pointerEvents=1;fontSize=16;strokeWidth=5;" vertex="1" parent="AAO-jaJHOTtID8i3oc5R-174">
          <mxGeometry x="460" width="58" height="40" as="geometry">
            <mxRectangle width="58" height="40" as="alternateBounds" />
          </mxGeometry>
        </mxCell>
        <mxCell id="AAO-jaJHOTtID8i3oc5R-204" style="shape=partialRectangle;html=1;whiteSpace=wrap;connectable=0;strokeColor=#b85450;overflow=hidden;fillColor=#f8cecc;top=0;left=0;bottom=0;right=0;pointerEvents=1;fontSize=16;strokeWidth=5;" vertex="1" parent="AAO-jaJHOTtID8i3oc5R-174">
          <mxGeometry x="518" width="57" height="40" as="geometry">
            <mxRectangle width="57" height="40" as="alternateBounds" />
          </mxGeometry>
        </mxCell>
        <mxCell id="AAO-jaJHOTtID8i3oc5R-207" style="shape=partialRectangle;html=1;whiteSpace=wrap;connectable=0;strokeColor=#b85450;overflow=hidden;fillColor=#f8cecc;top=0;left=0;bottom=0;right=0;pointerEvents=1;fontSize=16;strokeWidth=5;" vertex="1" parent="AAO-jaJHOTtID8i3oc5R-174">
          <mxGeometry x="575" width="58" height="40" as="geometry">
            <mxRectangle width="58" height="40" as="alternateBounds" />
          </mxGeometry>
        </mxCell>
        <mxCell id="AAO-jaJHOTtID8i3oc5R-210" style="shape=partialRectangle;html=1;whiteSpace=wrap;connectable=0;strokeColor=#b85450;overflow=hidden;fillColor=#f8cecc;top=0;left=0;bottom=0;right=0;pointerEvents=1;fontSize=16;strokeWidth=5;" vertex="1" parent="AAO-jaJHOTtID8i3oc5R-174">
          <mxGeometry x="633" width="57" height="40" as="geometry">
            <mxRectangle width="57" height="40" as="alternateBounds" />
          </mxGeometry>
        </mxCell>
        <mxCell id="AAO-jaJHOTtID8i3oc5R-178" value="" style="shape=tableRow;horizontal=0;startSize=0;swimlaneHead=0;swimlaneBody=0;strokeColor=inherit;top=0;left=0;bottom=0;right=0;collapsible=0;dropTarget=0;fillColor=none;points=[[0,0.5],[1,0.5]];portConstraint=eastwest;fontSize=16;strokeWidth=5;" vertex="1" parent="AAO-jaJHOTtID8i3oc5R-173">
          <mxGeometry y="40" width="690" height="40" as="geometry" />
        </mxCell>
        <mxCell id="AAO-jaJHOTtID8i3oc5R-179" value="" style="shape=partialRectangle;html=1;whiteSpace=wrap;connectable=0;strokeColor=#666666;overflow=hidden;fillColor=#f5f5f5;top=0;left=0;bottom=0;right=0;pointerEvents=1;fontSize=16;fontColor=#333333;strokeWidth=5;" vertex="1" parent="AAO-jaJHOTtID8i3oc5R-178">
          <mxGeometry width="58" height="40" as="geometry">
            <mxRectangle width="58" height="40" as="alternateBounds" />
          </mxGeometry>
        </mxCell>
        <mxCell id="AAO-jaJHOTtID8i3oc5R-180" value="" style="shape=partialRectangle;html=1;whiteSpace=wrap;connectable=0;strokeColor=#666666;overflow=hidden;fillColor=#f5f5f5;top=0;left=0;bottom=0;right=0;pointerEvents=1;fontSize=16;fontColor=#333333;strokeWidth=5;" vertex="1" parent="AAO-jaJHOTtID8i3oc5R-178">
          <mxGeometry x="58" width="57" height="40" as="geometry">
            <mxRectangle width="57" height="40" as="alternateBounds" />
          </mxGeometry>
        </mxCell>
        <mxCell id="AAO-jaJHOTtID8i3oc5R-181" value="" style="shape=partialRectangle;html=1;whiteSpace=wrap;connectable=0;strokeColor=#666666;overflow=hidden;fillColor=#f5f5f5;top=0;left=0;bottom=0;right=0;pointerEvents=1;fontSize=16;fontColor=#333333;strokeWidth=5;" vertex="1" parent="AAO-jaJHOTtID8i3oc5R-178">
          <mxGeometry x="115" width="58" height="40" as="geometry">
            <mxRectangle width="58" height="40" as="alternateBounds" />
          </mxGeometry>
        </mxCell>
        <mxCell id="AAO-jaJHOTtID8i3oc5R-187" style="shape=partialRectangle;html=1;whiteSpace=wrap;connectable=0;strokeColor=#6c8ebf;overflow=hidden;fillColor=#dae8fc;top=0;left=0;bottom=0;right=0;pointerEvents=1;fontSize=16;strokeWidth=5;" vertex="1" parent="AAO-jaJHOTtID8i3oc5R-178">
          <mxGeometry x="173" width="57" height="40" as="geometry">
            <mxRectangle width="57" height="40" as="alternateBounds" />
          </mxGeometry>
        </mxCell>
        <mxCell id="AAO-jaJHOTtID8i3oc5R-190" style="shape=partialRectangle;html=1;whiteSpace=wrap;connectable=0;strokeColor=#6c8ebf;overflow=hidden;fillColor=#dae8fc;top=0;left=0;bottom=0;right=0;pointerEvents=1;fontSize=16;strokeWidth=5;" vertex="1" parent="AAO-jaJHOTtID8i3oc5R-178">
          <mxGeometry x="230" width="58" height="40" as="geometry">
            <mxRectangle width="58" height="40" as="alternateBounds" />
          </mxGeometry>
        </mxCell>
        <mxCell id="AAO-jaJHOTtID8i3oc5R-193" style="shape=partialRectangle;html=1;whiteSpace=wrap;connectable=0;strokeColor=#6c8ebf;overflow=hidden;fillColor=#dae8fc;top=0;left=0;bottom=0;right=0;pointerEvents=1;fontSize=16;strokeWidth=5;" vertex="1" parent="AAO-jaJHOTtID8i3oc5R-178">
          <mxGeometry x="288" width="57" height="40" as="geometry">
            <mxRectangle width="57" height="40" as="alternateBounds" />
          </mxGeometry>
        </mxCell>
        <mxCell id="AAO-jaJHOTtID8i3oc5R-196" style="shape=partialRectangle;html=1;whiteSpace=wrap;connectable=0;strokeColor=#d6b656;overflow=hidden;fillColor=#fff2cc;top=0;left=0;bottom=0;right=0;pointerEvents=1;fontSize=16;strokeWidth=5;" vertex="1" parent="AAO-jaJHOTtID8i3oc5R-178">
          <mxGeometry x="345" width="58" height="40" as="geometry">
            <mxRectangle width="58" height="40" as="alternateBounds" />
          </mxGeometry>
        </mxCell>
        <mxCell id="AAO-jaJHOTtID8i3oc5R-199" style="shape=partialRectangle;html=1;whiteSpace=wrap;connectable=0;strokeColor=#d6b656;overflow=hidden;fillColor=#fff2cc;top=0;left=0;bottom=0;right=0;pointerEvents=1;fontSize=16;strokeWidth=5;" vertex="1" parent="AAO-jaJHOTtID8i3oc5R-178">
          <mxGeometry x="403" width="57" height="40" as="geometry">
            <mxRectangle width="57" height="40" as="alternateBounds" />
          </mxGeometry>
        </mxCell>
        <mxCell id="AAO-jaJHOTtID8i3oc5R-202" style="shape=partialRectangle;html=1;whiteSpace=wrap;connectable=0;strokeColor=#d6b656;overflow=hidden;fillColor=#fff2cc;top=0;left=0;bottom=0;right=0;pointerEvents=1;fontSize=16;strokeWidth=5;" vertex="1" parent="AAO-jaJHOTtID8i3oc5R-178">
          <mxGeometry x="460" width="58" height="40" as="geometry">
            <mxRectangle width="58" height="40" as="alternateBounds" />
          </mxGeometry>
        </mxCell>
        <mxCell id="AAO-jaJHOTtID8i3oc5R-205" style="shape=partialRectangle;html=1;whiteSpace=wrap;connectable=0;strokeColor=#b85450;overflow=hidden;fillColor=#f8cecc;top=0;left=0;bottom=0;right=0;pointerEvents=1;fontSize=16;strokeWidth=5;" vertex="1" parent="AAO-jaJHOTtID8i3oc5R-178">
          <mxGeometry x="518" width="57" height="40" as="geometry">
            <mxRectangle width="57" height="40" as="alternateBounds" />
          </mxGeometry>
        </mxCell>
        <mxCell id="AAO-jaJHOTtID8i3oc5R-208" style="shape=partialRectangle;html=1;whiteSpace=wrap;connectable=0;strokeColor=#b85450;overflow=hidden;fillColor=#f8cecc;top=0;left=0;bottom=0;right=0;pointerEvents=1;fontSize=16;strokeWidth=5;" vertex="1" parent="AAO-jaJHOTtID8i3oc5R-178">
          <mxGeometry x="575" width="58" height="40" as="geometry">
            <mxRectangle width="58" height="40" as="alternateBounds" />
          </mxGeometry>
        </mxCell>
        <mxCell id="AAO-jaJHOTtID8i3oc5R-211" style="shape=partialRectangle;html=1;whiteSpace=wrap;connectable=0;strokeColor=#b85450;overflow=hidden;fillColor=#f8cecc;top=0;left=0;bottom=0;right=0;pointerEvents=1;fontSize=16;strokeWidth=5;" vertex="1" parent="AAO-jaJHOTtID8i3oc5R-178">
          <mxGeometry x="633" width="57" height="40" as="geometry">
            <mxRectangle width="57" height="40" as="alternateBounds" />
          </mxGeometry>
        </mxCell>
        <mxCell id="AAO-jaJHOTtID8i3oc5R-182" value="" style="shape=tableRow;horizontal=0;startSize=0;swimlaneHead=0;swimlaneBody=0;strokeColor=inherit;top=0;left=0;bottom=0;right=0;collapsible=0;dropTarget=0;fillColor=none;points=[[0,0.5],[1,0.5]];portConstraint=eastwest;fontSize=16;strokeWidth=5;" vertex="1" parent="AAO-jaJHOTtID8i3oc5R-173">
          <mxGeometry y="80" width="690" height="40" as="geometry" />
        </mxCell>
        <mxCell id="AAO-jaJHOTtID8i3oc5R-183" value="" style="shape=partialRectangle;html=1;whiteSpace=wrap;connectable=0;strokeColor=#666666;overflow=hidden;fillColor=#f5f5f5;top=0;left=0;bottom=0;right=0;pointerEvents=1;fontSize=16;fontColor=#333333;strokeWidth=5;" vertex="1" parent="AAO-jaJHOTtID8i3oc5R-182">
          <mxGeometry width="58" height="40" as="geometry">
            <mxRectangle width="58" height="40" as="alternateBounds" />
          </mxGeometry>
        </mxCell>
        <mxCell id="AAO-jaJHOTtID8i3oc5R-184" value="" style="shape=partialRectangle;html=1;whiteSpace=wrap;connectable=0;strokeColor=#666666;overflow=hidden;fillColor=#f5f5f5;top=0;left=0;bottom=0;right=0;pointerEvents=1;fontSize=16;fontColor=#333333;strokeWidth=5;" vertex="1" parent="AAO-jaJHOTtID8i3oc5R-182">
          <mxGeometry x="58" width="57" height="40" as="geometry">
            <mxRectangle width="57" height="40" as="alternateBounds" />
          </mxGeometry>
        </mxCell>
        <mxCell id="AAO-jaJHOTtID8i3oc5R-185" value="" style="shape=partialRectangle;html=1;whiteSpace=wrap;connectable=0;strokeColor=#666666;overflow=hidden;fillColor=#f5f5f5;top=0;left=0;bottom=0;right=0;pointerEvents=1;fontSize=16;fontColor=#333333;strokeWidth=5;" vertex="1" parent="AAO-jaJHOTtID8i3oc5R-182">
          <mxGeometry x="115" width="58" height="40" as="geometry">
            <mxRectangle width="58" height="40" as="alternateBounds" />
          </mxGeometry>
        </mxCell>
        <mxCell id="AAO-jaJHOTtID8i3oc5R-188" style="shape=partialRectangle;html=1;whiteSpace=wrap;connectable=0;strokeColor=#6c8ebf;overflow=hidden;fillColor=#dae8fc;top=0;left=0;bottom=0;right=0;pointerEvents=1;fontSize=16;strokeWidth=5;" vertex="1" parent="AAO-jaJHOTtID8i3oc5R-182">
          <mxGeometry x="173" width="57" height="40" as="geometry">
            <mxRectangle width="57" height="40" as="alternateBounds" />
          </mxGeometry>
        </mxCell>
        <mxCell id="AAO-jaJHOTtID8i3oc5R-191" style="shape=partialRectangle;html=1;whiteSpace=wrap;connectable=0;strokeColor=#6c8ebf;overflow=hidden;fillColor=#dae8fc;top=0;left=0;bottom=0;right=0;pointerEvents=1;fontSize=16;strokeWidth=5;" vertex="1" parent="AAO-jaJHOTtID8i3oc5R-182">
          <mxGeometry x="230" width="58" height="40" as="geometry">
            <mxRectangle width="58" height="40" as="alternateBounds" />
          </mxGeometry>
        </mxCell>
        <mxCell id="AAO-jaJHOTtID8i3oc5R-194" style="shape=partialRectangle;html=1;whiteSpace=wrap;connectable=0;strokeColor=#6c8ebf;overflow=hidden;fillColor=#dae8fc;top=0;left=0;bottom=0;right=0;pointerEvents=1;fontSize=16;strokeWidth=5;" vertex="1" parent="AAO-jaJHOTtID8i3oc5R-182">
          <mxGeometry x="288" width="57" height="40" as="geometry">
            <mxRectangle width="57" height="40" as="alternateBounds" />
          </mxGeometry>
        </mxCell>
        <mxCell id="AAO-jaJHOTtID8i3oc5R-197" style="shape=partialRectangle;html=1;whiteSpace=wrap;connectable=0;strokeColor=#d6b656;overflow=hidden;fillColor=#fff2cc;top=0;left=0;bottom=0;right=0;pointerEvents=1;fontSize=16;strokeWidth=5;" vertex="1" parent="AAO-jaJHOTtID8i3oc5R-182">
          <mxGeometry x="345" width="58" height="40" as="geometry">
            <mxRectangle width="58" height="40" as="alternateBounds" />
          </mxGeometry>
        </mxCell>
        <mxCell id="AAO-jaJHOTtID8i3oc5R-200" style="shape=partialRectangle;html=1;whiteSpace=wrap;connectable=0;strokeColor=#d6b656;overflow=hidden;fillColor=#fff2cc;top=0;left=0;bottom=0;right=0;pointerEvents=1;fontSize=16;strokeWidth=5;" vertex="1" parent="AAO-jaJHOTtID8i3oc5R-182">
          <mxGeometry x="403" width="57" height="40" as="geometry">
            <mxRectangle width="57" height="40" as="alternateBounds" />
          </mxGeometry>
        </mxCell>
        <mxCell id="AAO-jaJHOTtID8i3oc5R-203" style="shape=partialRectangle;html=1;whiteSpace=wrap;connectable=0;strokeColor=#d6b656;overflow=hidden;fillColor=#fff2cc;top=0;left=0;bottom=0;right=0;pointerEvents=1;fontSize=16;strokeWidth=5;" vertex="1" parent="AAO-jaJHOTtID8i3oc5R-182">
          <mxGeometry x="460" width="58" height="40" as="geometry">
            <mxRectangle width="58" height="40" as="alternateBounds" />
          </mxGeometry>
        </mxCell>
        <mxCell id="AAO-jaJHOTtID8i3oc5R-206" style="shape=partialRectangle;html=1;whiteSpace=wrap;connectable=0;strokeColor=#b85450;overflow=hidden;fillColor=#f8cecc;top=0;left=0;bottom=0;right=0;pointerEvents=1;fontSize=16;strokeWidth=5;" vertex="1" parent="AAO-jaJHOTtID8i3oc5R-182">
          <mxGeometry x="518" width="57" height="40" as="geometry">
            <mxRectangle width="57" height="40" as="alternateBounds" />
          </mxGeometry>
        </mxCell>
        <mxCell id="AAO-jaJHOTtID8i3oc5R-209" style="shape=partialRectangle;html=1;whiteSpace=wrap;connectable=0;strokeColor=#b85450;overflow=hidden;fillColor=#f8cecc;top=0;left=0;bottom=0;right=0;pointerEvents=1;fontSize=16;strokeWidth=5;" vertex="1" parent="AAO-jaJHOTtID8i3oc5R-182">
          <mxGeometry x="575" width="58" height="40" as="geometry">
            <mxRectangle width="58" height="40" as="alternateBounds" />
          </mxGeometry>
        </mxCell>
        <mxCell id="AAO-jaJHOTtID8i3oc5R-212" style="shape=partialRectangle;html=1;whiteSpace=wrap;connectable=0;strokeColor=#b85450;overflow=hidden;fillColor=#f8cecc;top=0;left=0;bottom=0;right=0;pointerEvents=1;fontSize=16;strokeWidth=5;" vertex="1" parent="AAO-jaJHOTtID8i3oc5R-182">
          <mxGeometry x="633" width="57" height="40" as="geometry">
            <mxRectangle width="57" height="40" as="alternateBounds" />
          </mxGeometry>
        </mxCell>
      </root>
    </mxGraphModel>
  </diagram>
</mxfile>
